<?xml version="1.0" encoding="utf-8"?>
<!-- Designed by Vexels.com - 2016 All Rights Reserved - https://vexels.com/terms-and-conditions/  -->

<svg version="1.1" id="Layer_1" xmlns="http://www.w3.org/2000/svg" xmlns:xlink="http://www.w3.org/1999/xlink" x="0px" y="0px"
	 width="32px" height="32px" viewBox="0 0 1200 1200" enable-background="new 0 0 1200 1200" xml:space="preserve">
<g>
	<path fill="#575756" d="M747.672,789.868c0,39.413,31.942,71.409,71.409,71.409s71.409-31.996,71.409-71.409
		c0-39.484-31.942-71.46-71.409-71.46S747.672,750.384,747.672,789.868z M778.5,790.494c0-22.067,17.869-39.936,39.92-39.936
		c22.083,0,39.953,17.869,39.953,39.936c0,22.067-17.87,39.955-39.953,39.955C796.368,830.45,778.5,812.561,778.5,790.494z"/>
	<path fill="#575756" d="M323.643,742.774c0,66.131,53.643,119.809,119.757,119.809c66.149,0,119.828-53.677,119.828-119.809
		S509.549,622.997,443.4,622.997C377.286,622.997,323.643,676.642,323.643,742.774z M380.247,742.774
		c0-34.887,28.284-63.171,63.153-63.171c34.904,0,63.223,28.284,63.223,63.171c0,34.885-28.318,63.205-63.223,63.205
		C408.531,805.979,380.247,777.659,380.247,742.774z"/>
	<path fill="#575756" d="M146.132,679.253c0,0,57.335-11.059,60.679-112.513c0,0-83.845,46.294-112.548,29.766l109.204-152.275
		c0,0,81.789,116.989,129.163,149.557l-17.696,65.923c-4.564,22.87,12.017,9.667,12.017,9.667c53.749-77.747,155.532-60,155.532-60
		c93.772,7.437,100.67,160.652,100.67,160.652c1.707,17.747,13.724,15.989,13.724,15.989h108.088
		c18.846-1.133,15.397-24.559,15.397-24.559c1.776-9.718,13.76-6.863,13.76-6.863c6.271,0.558,11.461-5.729,11.461-5.729
		c50.892-82.905,119.479-27.45,119.479-27.45c9.718,13.708,17.173,6.287,17.173,6.287c5.365-5.172,6.34-17.294,5.051-31.837
		c26.822,14.944,59.461,51.082,79.698,75.484c-5.573,15.588-1.045,25.151-1.045,25.151C1008.506,873.137,1150,848.632,1150,848.632
		c-64.895-34.014-121.257-138.323-121.257-138.323c-21.562,12.748-36.053,24.835-45.771,35.721l-54.236-82.538
		c-15.5-24.072-38.316-33.597-56.151-37.273c-2.682-9.213-4.667-15.152-4.667-15.152c-6.793-13.185-29.156-17.104-29.156-17.104
		l-130.939-28.407l-13.62-143.549c-0.417-4.163-5.12-7.123-10.485-6.618c-5.399,0.505-9.404,4.302-9.057,8.482l13.062,137.349
		l-33.683-7.298c-11.427-2.857-15.989-16.581-15.989-16.581c0.592-6.305-18.288-78.341-18.288-78.341
		c39.431-37.724-2.299-57.77-2.299-57.77c-27.483-21.701-237.356-9.718-237.356-9.718c-38.874,2.873-7.978,36.609-7.978,36.609
		c5.712,1.707,1.707,12.557,1.707,12.557l-16.231,60.367c-32.534-29.54-140.799-128.746-134.25-136.217
		c0,0,7.733-41.94-47.442-22.067L50.129,598.701C50.129,598.701,42.431,688.05,146.132,679.253z M561.522,647.504h70.85
		l5.086,29.365c0,0,4.562,16.005-9.162,18.304h-33.718c0,0-12.575-2.299-17.139-12.591
		C577.439,682.581,571.484,666.732,561.522,647.504z M509.444,422.582l72.003,3.241c0,0,13.688-2.839,18.286,33.178l31.002,178.94
		h-74.334c-12.088-21.475-28.53-44.587-46.957-54.009V422.582z M409.89,574.492l13.69-143.531c0,0,4.006-12.001,30.897-10.835
		l41.104,1.83v157.882c-11.252-1.619-38.177-4.214-72.523,0.958C423.058,580.797,411.041,584.786,409.89,574.492z"/>
</g>
</svg>
